# xmcd
#
# Track frame offsets:
#	150
#	20617
#	43629
#	69511
#	88425
#	118469
#	140776
#	165761
#	191638
#	214536
#	238633
#
# Disc length: 3515 seconds
# Revision: 0
# Processed by: cddbd v1.5.2PL0 Copyright (c) Steve Scherf et al.
# Submitted via: dBpowerAMP V12.0
#
DISCID=a00db90b
DTITLE=Hendrik Meurkens - Harmonicus Rex
DYEAR=2015
DGENRE=Blues
TTITLE0=Mundell's Mood
TTITLE1=Slidin'
TTITLE2=In Your Own Sweet Way
TTITLE3=Afternoon
TTITLE4=SKJ
TTITLE5=Falling In Love With Love
TTITLE6=A Summer In San Francisco
TTITLE7=Up Jumped Spring
TTITLE8=Mean Dog Blues
TTITLE9=Darn That Dream
TTITLE10=What's New
EXTD=
EXTT0=
EXTT1=
EXTT2=
EXTT3=
EXTT4=
EXTT5=
EXTT6=
EXTT7=
EXTT8=
EXTT9=
EXTT10=
PLAYORDER=
